<svg xmlns="http://www.w3.org/2000/svg" width="32.8" height="35.832" viewBox="0 0 32.8 35.832">
  <g id="rainy-6" transform="translate(-15.5 -19.9)">
    <g id="Group_8" data-name="Group 8" transform="translate(20 10)">
      <g id="Group_7" data-name="Group 7">
        <path id="Path_3" data-name="Path 3" d="M47.7,35.4a8.173,8.173,0,0,0-8.2-8.2,8.676,8.676,0,0,0-2.8.5,6.658,6.658,0,0,0-13.3.5,8.519,8.519,0,0,0,.4,2.3,3.4,3.4,0,0,0-1-.1,6.7,6.7,0,0,0-.2,13.4H39.8A8.643,8.643,0,0,0,47.7,35.4Z" transform="translate(-20 -11)" fill="#57a0ee" stroke="#fff" stroke-linejoin="round" stroke-width="1.2"/>
      </g>
    </g>
    <g id="Group_9" data-name="Group 9" transform="translate(31 46) rotate(10)">
      <line id="Line_4" data-name="Line 4" y2="8" transform="translate(-4 1)" fill="none" stroke="#91c0f8" stroke-linecap="round" stroke-width="2" stroke-dasharray="4 4"/>
      <line id="Line_5" data-name="Line 5" y2="8" transform="translate(0 -1)" fill="none" stroke="#91c0f8" stroke-linecap="round" stroke-width="2" stroke-dasharray="4 4"/>
      <line id="Line_6" data-name="Line 6" y2="8" transform="translate(4)" fill="none" stroke="#91c0f8" stroke-linecap="round" stroke-width="2" stroke-dasharray="4 4"/>
    </g>
  </g>
</svg>
